<svg width="68" height="68" viewBox="0 0 68 68" fill="none" xmlns="http://www.w3.org/2000/svg">
<path d="M34.0042 0.09375C15.2738 0.09375 0.0979919 15.2695 0.0979919 34C0.0979919 52.7305 15.2738 67.9062 34.0042 67.9062C52.7347 67.9062 67.9105 52.7305 67.9105 34C67.9105 15.2695 52.7347 0.09375 34.0042 0.09375ZM49.8636 40.0156H34.0042V49.709C34.0042 51.1719 32.2269 51.9102 31.2015 50.8711L15.5746 35.1621C14.932 34.5195 14.932 33.4941 15.5746 32.8516L31.2015 17.1289C32.2406 16.0898 34.0042 16.8281 34.0042 18.291V27.9844H49.8636C50.766 27.9844 51.5042 28.7227 51.5042 29.625V38.375C51.5042 39.2773 50.766 40.0156 49.8636 40.0156Z" fill="black"/>
</svg>
